<svg
   width="404"
   height="170"
   viewBox="0 0 202 85">
  <g
     transform="translate(-22)">
    <path
       id="path3331"
       style="fill:#26551b"
       d="m 114.24487,36.392665 c -2.59307,-2.212093 2.34904,-4.046437 0,0 z" />
    <path
       id="path3329"
       style="fill:#26551b"
       d="m 110.34463,34.927248 c -1.25146,-0.557525 -0.16181,-11.084984 0.27357,-3.397128 0.12668,1.133587 0.1058,2.308977 -0.27357,3.397128 z" />
    <path
       id="path3327"
       style="fill:#26551b"
       d="m 97.570735,31.397431 c -2.062008,2.204293 -4.124017,4.408585 -6.186025,6.612878 3.917767,-7.631871 10.66255,-13.65818 18.05828,-17.823583 2.61614,-1.600929 10.65143,-5.057934 10.92153,-2.044327 -3.80761,2.748494 -5.15235,11.750412 -7.4433,12.712817 0.2199,-3.323329 5.93395,-13.239218 -1.41011,-10.107139 -5.49092,2.560774 -10.21423,5.785116 -13.940375,10.649354 z" />
    <path
       id="path3325"
       style="fill:#26551b"
       d="m 115.1407,38.663497 c -2.51214,-1.226019 2.30395,-1.224156 0,0 z" />
    <path
       id="path3307"
       style="fill:#26551b"
       d="m 91.140685,39.663497 c -2.512136,-1.226019 2.303962,-1.224155 0,0 z" />
    <path
       id="path3303"
       style="fill:#26551b"
       d="m 90.140685,41.663497 c -2.512136,-1.226019 2.303962,-1.224155 0,0 z" />
    <path
       id="path3297"
       style="fill:#26551b"
       d="m 118.26314,42.663497 c -4.71787,-2.976577 0.0111,-3.40565 0,0 z" />
    <path
       id="path3288"
       style="fill:#26551b;stroke-width:1.03963"
       d="m 90.152731,51.232348 c -2.403327,-0.140726 -7.921936,0.118176 -8.151147,-0.285675 14.569609,-0.754409 29.439716,-2.092428 42.945316,-8.033516 7.97961,-2.910985 16.04021,-6.195693 24.66161,-6.276382 9.54555,-1.468772 19.12148,0.113066 28.62269,1.103037 -12.89016,1.593922 -26.16886,-1.251937 -38.81904,2.569469 -15.29678,4.542259 -30.34825,12.387349 -46.767497,10.94931 l -1.245864,-0.02332 -1.246068,-0.0029 z" />
    <g
       aria-label="nor-port"
       id="text3337"
       style="fill:#26551b;stroke-width:1.03963">
      <path
         id="path3339"
         d="m 31.656073,21.676361 c -1.613461,-1.699688 -0.4986,-9.993395 -3.968748,-5.21875 0.714838,3.495061 -2.919218,5.981984 -2.202615,1.130875 -0.189946,-1.177441 0.642469,-6.532486 1.819802,-3.068375 4.21306,-5.6753186 6.459084,4.724249 4.351561,7.15625 z" />
      <path
         id="path3341"
         d="m 36.968573,21.582611 c -8.501678,-0.783647 1.638533,-14.5233096 3.535853,-5.155242 0.282948,2.220219 -0.909242,5.204611 -3.535853,5.155242 z m 0.46875,-6.976562 c -6.208352,0.621195 2.209809,9.073051 1.620953,2.035907 -0.02553,-0.886495 -0.550041,-2.123089 -1.620953,-2.035907 z" />
      <path
         id="path3343"
         d="m 48.531073,15.348236 c -1.328625,0.862518 -4.266464,-3.124387 -4.32603,1.202517 0.385136,3.011051 -1.900104,6.754661 -1.782935,1.624732 -2.598521,-4.625067 6.478609,-7.735611 6.108965,-2.827249 z" />
      <path
         id="path3345"
         d="m 54.359198,17.410736 c -2.897391,1.802117 -5.196313,-2.171201 -1.033259,-1.278382 0.836982,-0.328531 2.635718,0.721383 1.033259,1.278382 z" />
      <path
         id="path3347"
         d="m 60.124823,21.395111 c -2.77078,-1.595189 -1.88171,7.613072 -3.105045,1.849007 -0.355786,-4.395157 -2.000669,-12.470158 5.104349,-9.685355 2.600945,2.024331 1.866834,7.889844 -1.999304,7.836348 z m 0.539062,-6.773437 c -5.797774,-0.09061 0.779695,9.315518 1.383886,2.693962 0.06041,-1.001035 -0.09737,-2.543475 -1.383886,-2.693962 z" />
      <path
         id="path3349"
         d="m 68.288885,21.582611 c -8.501677,-0.783648 1.638534,-14.5233088 3.535854,-5.155242 0.282949,2.220219 -0.909243,5.204612 -3.535854,5.155242 z m 0.46875,-6.976562 c -6.208352,0.621196 2.209809,9.07305 1.620953,2.035906 -0.02553,-0.886495 -0.550041,-2.123088 -1.620953,-2.035906 z" />
      <path
         id="path3351"
         d="m 79.851385,15.348236 c -1.328625,0.862519 -4.266464,-3.124387 -4.326028,1.202517 0.385136,3.011052 -1.900106,6.754661 -1.782937,1.624733 -2.598522,-4.625068 6.478609,-7.735613 6.108965,-2.82725 z" />
      <path
         id="path3353"
         d="m 86.687323,14.465424 c -3.511466,-0.853869 -0.996758,10.537935 -3.030479,4.235836 -0.287607,-3.642951 -3.632556,-6.203929 0.852898,-7.876821 -0.732592,3.003061 4.71402,1.546452 2.177581,3.640985 z" />
    </g>
  </g>
</svg>