<?xml version="1.0" encoding="UTF-8" standalone="no"?>
<svg
   xmlns:dc="http://purl.org/dc/elements/1.1/"
   xmlns:cc="http://creativecommons.org/ns#"
   xmlns:rdf="http://www.w3.org/1999/02/22-rdf-syntax-ns#"
   xmlns:svg="http://www.w3.org/2000/svg"
   xmlns="http://www.w3.org/2000/svg"
   xmlns:sodipodi="http://sodipodi.sourceforge.net/DTD/sodipodi-0.dtd"
   xmlns:inkscape="http://www.inkscape.org/namespaces/inkscape"
   width="72.273384"
   height="55.90979"
   viewBox="0 0 36.136692 27.954895"
   version="1.1"
   id="svg21"
   sodipodi:docname="nor-port-no-text.svg"
   inkscape:version="1.0.1 (3bc2e813f5, 2020-09-07)">
  <metadata
     id="metadata27">
    <rdf:RDF>
      <cc:Work
         rdf:about="">
        <dc:format>image/svg+xml</dc:format>
        <dc:type
           rdf:resource="http://purl.org/dc/dcmitype/StillImage" />
        <dc:title />
      </cc:Work>
    </rdf:RDF>
  </metadata>
  <defs
     id="defs25" />
  <sodipodi:namedview
     pagecolor="#ffffff"
     bordercolor="#666666"
     borderopacity="1"
     objecttolerance="10"
     gridtolerance="10"
     guidetolerance="10"
     inkscape:pageopacity="0"
     inkscape:pageshadow="2"
     inkscape:window-width="1600"
     inkscape:window-height="877"
     id="namedview23"
     showgrid="false"
     inkscape:zoom="2.5792079"
     inkscape:cx="108.01329"
     inkscape:cy="79.403792"
     inkscape:window-x="192"
     inkscape:window-y="1072"
     inkscape:window-maximized="1"
     inkscape:current-layer="svg21"
     fit-margin-top="0"
     fit-margin-left="0"
     fit-margin-right="0"
     fit-margin-bottom="0"
     inkscape:document-rotation="0" />
  <path
     style="fill:#26d61b;stroke-width:0.483228;fill-opacity:1"
     d="m 25.388136,19.44293 c -2.59307,-2.212093 2.34904,-4.046437 0,0 z"
     id="path844" />
  <path
     style="fill:#26d61b;stroke-width:0.483228;fill-opacity:1"
     d="m 21.487896,17.977513 c -1.25146,-0.557525 -0.16181,-11.0849845 0.27357,-3.397128 0.12668,1.133587 0.1058,2.308977 -0.27357,3.397128 z"
     id="path842" />
  <path
     style="fill:#26d61b;stroke-width:0.483228;fill-opacity:1"
     d="M 8.7140009,14.447696 C 6.6519929,16.651989 4.5899839,18.856281 2.5279757,21.060574 6.4457429,13.428703 13.190526,7.4023942 20.586256,3.2369907 c 2.61614,-1.600929 10.65143,-5.057934 10.92153,-2.044327 -3.80761,2.748494 -5.15235,11.7504123 -7.4433,12.7128173 0.2199,-3.323329 5.93395,-13.23921846 -1.41011,-10.1071393 -5.49092,2.560774 -10.21423,5.7851165 -13.9403751,10.6493543 z"
     id="path840" />
  <path
     style="fill:#26d61b;stroke-width:0.483228;fill-opacity:1"
     d="m 26.283966,21.713762 c -2.51214,-1.226019 2.30395,-1.224156 0,0 z"
     id="path838" />
  <path
     style="fill:#26d61b;stroke-width:0.483228;fill-opacity:1"
     d="m 2.2839507,22.713762 c -2.5121358,-1.226019 2.3039622,-1.224155 0,0 z"
     id="path836" />
  <path
     style="fill:#26d61b;stroke-width:0.483228;fill-opacity:1"
     d="m 1.2839507,24.713762 c -2.5121358,-1.226019 2.3039622,-1.224155 0,0 z"
     id="path834" />
  <path
     style="fill:#26d61b;stroke-width:0.483228;fill-opacity:1"
     d="m 29.406406,25.713762 c -4.71787,-2.976577 0.0111,-3.40565 0,0 z"
     id="path832" />
  <path
     style="fill:#26d61b;fill-opacity:1;stroke-width:0.303928"
     d="m 2.6732489,27.134018 c -0.9025108,-0.03203 -2.97489023,0.0269 -3.06096483,-0.06502 C 5.083546,26.897311 10.667653,26.592797 15.739353,25.240692 c 2.996548,-0.662498 6.02351,-1.410049 9.261067,-1.428413 3.584599,-0.334271 7.180607,0.02573 10.748555,0.251035 -4.840586,0.362754 -9.827079,-0.284922 -14.577545,0.584774 -5.744334,1.033752 -11.3965479,2.81918 -17.562397,2.491903 l -0.467854,-0.0053 -0.4679301,-6.72e-4 z"
     id="path3288" />
</svg>
