<?xml version="1.0" encoding="iso-8859-1"?>
<!-- Generator: Adobe Illustrator 19.0.0, SVG Export Plug-In . SVG Version: 6.00 Build 0)  -->
<svg version="1.1" id="Layer_1" xmlns="http://www.w3.org/2000/svg" xmlns:xlink="http://www.w3.org/1999/xlink" x="0px" y="0px"
	 viewBox="0 0 512 512" style="enable-background:new 0 0 512 512;" xml:space="preserve">
<polygon style="fill:#9D9D9D;" points="87.996,222.304 67.097,250.561 87.996,280.322 165.46,303.295 165.461,303.295 
	195.321,248.358 155.093,222.304 "/>
<polygon style="fill:#D4D4D4;" points="0,222.304 9.911,257.165 87.996,280.322 87.996,222.304 "/>
<polygon style="fill:#6F6F6F;" points="512,222.304 424.004,222.304 403.105,251.313 424.004,280.322 502.089,257.165 "/>
<g>
	<polygon style="fill:#9D9D9D;" points="356.907,222.304 316.679,248.358 346.539,303.295 346.54,303.295 424.004,280.322 
		424.004,222.304 	"/>
	<polygon style="fill:#9D9D9D;" points="305.551,403.358 271.673,403.358 271.673,332.279 245.55,332.279 256,434.705 
		305.551,434.705 	"/>
</g>
<g>
	<polygon style="fill:#D4D4D4;" points="240.327,332.279 240.327,403.358 206.449,403.358 206.449,434.705 256,434.705 256,332.279 
			"/>
	<polygon style="fill:#D4D4D4;" points="271.048,60.671 256,60.671 245.55,149.259 282.798,149.259 	"/>
</g>
<polygon style="fill:#EDEDED;" points="240.952,60.671 229.201,149.259 256,149.259 256,60.671 "/>
<g>
	<polygon style="fill:#9D9D9D;" points="364.669,130.121 256,130.121 235.101,145.794 256,161.468 364.669,161.468 	"/>
	<rect x="190.777" y="386.729" style="fill:#9D9D9D;" width="31.347" height="64.6"/>
</g>
<rect x="289.876" y="386.729" style="fill:#6F6F6F;" width="31.347" height="64.6"/>
<g>
	<rect x="147.331" y="130.123" style="fill:#D4D4D4;" width="108.669" height="31.347"/>
	<path style="fill:#D4D4D4;" d="M256,145.794l-20.899,110.207L256,355.326c57.861,0,104.767-46.905,104.767-104.767
		S313.861,145.794,256,145.794z"/>
</g>
<path style="fill:#EDEDED;" d="M151.233,250.561c0,57.861,46.905,104.767,104.767,104.767V145.794
	C198.139,145.794,151.233,192.7,151.233,250.561z"/>
<path style="fill:#FF9500;" d="M287.718,198.806H256l-20.899,24.776L256,248.358h60.679
	C315.928,227.411,304.516,209.139,287.718,198.806z"/>
<path style="fill:#FFC222;" d="M224.282,198.806c-16.798,10.333-28.211,28.605-28.962,49.552H256v-49.552H224.282z"/>
<g>
</g>
<g>
</g>
<g>
</g>
<g>
</g>
<g>
</g>
<g>
</g>
<g>
</g>
<g>
</g>
<g>
</g>
<g>
</g>
<g>
</g>
<g>
</g>
<g>
</g>
<g>
</g>
<g>
</g>
</svg>
