<?xml version="1.0" encoding="iso-8859-1"?>
<!-- Generator: Adobe Illustrator 16.0.0, SVG Export Plug-In . SVG Version: 6.00 Build 0)  -->
<!DOCTYPE svg PUBLIC "-//W3C//DTD SVG 1.1//EN" "http://www.w3.org/Graphics/SVG/1.1/DTD/svg11.dtd">
<svg version="1.1" id="Capa_1" xmlns="http://www.w3.org/2000/svg" xmlns:xlink="http://www.w3.org/1999/xlink" x="0px" y="0px"
	 width="189.169px" height="189.169px" viewBox="0 0 189.169 189.169" style="enable-background:new 0 0 189.169 189.169;"
	 xml:space="preserve">
<g>
	<path d="M128.588,115.152c-2.827-6.775-13.494-7.609-19.599-7.771c-11.006-0.292-23.23,4.529-32.294,10.649
		c-13.165-3.177-26.013-7.192-39.443-9.215c-5.063-0.764-17.62-3.471-22.112,1.062c-8.425,8.504,11.857,19.668,21.89,23.477
		c-5.216,1.058-10.8,4.132-14.895,7.374c-4.248-5.678-14.613-8.618-20.82-6.883c-1.02,0.285-1.722,1.642-1.051,2.584
		c3.047,4.28,6.015,8.238,10.454,11.081c-9.225-0.701-11.191,13.529-2.294,16.227c5.914,1.793,12.275,1.732,18.341,0.62
		c14.925-2.739,30.042-4.977,44.541-9.556c4.593,10.107,13.608,27.456,26.03,23.634c10.917-3.358,9.974-23.436,9.381-33.445
		c0.393-0.021,0.781-0.132,1.109-0.407C114.723,138.804,133.159,126.102,128.588,115.152z M125.043,119.829
		c-1.767,9.333-13.861,14.844-19.543,21.849c-0.714-0.124-1.506,0.259-1.478,1.201c0.156,5.128-0.506,10.484-1.315,15.531
		c-0.781,4.868-1.905,12.455-6.2,15.538c-6.919,4.967-17.706-12.959-22.967-20.465c0.572-1.267-0.391-3.085-2.153-2.638
		c-0.012,0.003-0.025,0.006-0.037,0.009c-0.3-0.097-0.603-0.008-0.835,0.202c-11.883,2.995-23.806,5.439-35.847,7.73
		c-5.111,0.972-10.106,2.01-15.304,2.374c-6.977,0.489-15.843-4.961-8.142-12.513c0.229-0.226,0.238-0.508,0.121-0.736
		c0.497,0.19,1.106-0.372,0.757-0.863c-2.42-3.413-4.86-6.82-7.271-10.244c5.914-0.434,11.218,3.132,15.665,6.799
		c0.044,0.031,0.073,0.079,0.122,0.101c0.205,0.17,0.419,0.338,0.62,0.508c1.112,0.938,2.506-0.114,2.111-1.392
		c2.212-0.934,4.381-1.978,6.548-3.001c3.661-1.73,7.705-2.517,11.305-4.308c0.487-0.242,0.624-0.687,0.615-1.136
		c0.272-0.3,0.306-0.789-0.124-1.104c-4.296-3.134-8.952-5.648-13.379-8.594c-2.986-2.038-5.802-4.291-8.45-6.76
		c-7.093-6.609,12.939-5.64,12.723-5.655c14.618,1.033,29.112,5.675,43.443,8.618c0.233,0.173,0.53,0.238,0.878,0.166
		c0.554,0.074,0.995-0.138,1.293-0.48c6.679-2.713,13.104-5.794,20.095-7.724C103.684,111.357,127.096,108.984,125.043,119.829z"/>
	<path d="M146.868,22.985c-28.764-17.527-63.414-16.307-92.59-0.826C30.591,34.728,4.042,71.952,23.066,98.539
		c1.351,1.888,4.029,0.298,3.086-1.804c-7.04-15.683-4.015-31.25,4.093-44.446c0.025,0.085,0.017,0.166,0.055,0.252
		c1.437,3.3,3.411,5.017,6.258,7.233c4.019,3.127,4.857,11.44,6.723,16.029C48,87.408,36.784,89.722,35.166,99.326
		c-0.275,1.634,2.068,2.354,2.527,0.697c1.387-5.014,6.412-7.636,9.313-11.636c2.442-3.367,2.128-7.636,1.036-11.343
		c-1.475-5.007-3.422-10.137-5.131-15.085c-1.715-4.964-7.214-6.506-9.32-11.341c-0.352-0.807-1.001-1.059-1.643-0.967
		c7.408-10.864,18.202-19.929,29.407-25.824c7.47-3.93,15.296-6.439,23.247-7.764c3.232,2.822,6.36,4.509,10.299,6.433
		c15.243,7.446,8.799,18.882-1.112,25.434c-3.961,2.618-8.42,4.453-12.494,6.89c-5.339,3.194-7.173,9.47-13.051,12.767
		c-3.981,2.233-10.849,4.911-9.638,10.999c0.667,3.352,1.923,5.347,4.042,8.128c0.68,0.893,13.762,18.535,10.584,17.319
		c-0.504-0.193-1.209,0.025-1.563,0.413l-2.287,2.501c-0.909,0.994,0.302,2.79,1.501,1.945c1.389-0.106,2.778-0.214,4.167-0.321
		c0.796,0.418,2.065,0.281,2.477-0.65c3.359-7.593-1.614-12.798-6.725-18.312c-3.239-3.494-13.268-11.327-3.84-17.269
		c2.126-1.34,4.714-1.873,6.665-3.537c6.432-5.487,11.189-11.627,18.968-15.594c6.41-3.269,18.286-10.818,17.302-19.688
		c-1.171-10.53-10.356-13.896-18.818-18.278c18.246-1.526,36.844,3.102,53.16,12.24c7.727,4.328,14.501,9.786,20.176,16.094
		c-10.05,1.783-8.716,15.283-15.312,22.038c-1.256,1.286-0.345,3.476,1.45,3.5c7.758,0.1-1.602,10.96,5.587,15.892
		c5.326,3.654,8.993,1.578,10.127-2.807c0.638,0.282,1.409,0.44,2.508,0.44c1.19,0,10.49-2.651,1.154,1.013
		c-1.558,0.611-2.53,3.232-0.535,4.095c1.843,0.796-8.204,2.955-6.607,2.312c-5.407,2.18-4.153,1.448-8.747,5.33
		c-5.426,4.587,0.791,17.947-0.076,22.686c-2.239,12.227-14.302,26.707-2.398,36.771c-7.153,4.659-15.315,7.97-24.336,9.445
		c-2.154,0.353-1.553,3.665,0.5,3.697c34.544,0.527,56.878-36.411,60.811-66.659C192.868,68.008,174.488,39.815,146.868,22.985z
		 M154.833,152.535c-0.014-0.017-0.017-0.035-0.032-0.05c-9.081-9.527,2.363-26.197,4-36.325c0.457-2.83-0.774-6.286-1.534-8.944
		c-3.86-13.504,13.34-12.933,19.941-14.839c1.656-0.478,1.972-2.376,0.95-3.599c-1.253-1.499-1.812-2.24-2.316-2.729
		c3.394-1.618,6.621-4.01,5.585-7.776c-2.603-9.463-12.164,1.723-15.517-2.517c-1.131-1.43-3.783-0.263-3.626,1.502
		c-4.486-1.705-5.079-3.939-1.781-6.703c0.617-0.956,0.202-3.366,0.186-3.894c-0.035-1.099-0.878-1.963-1.986-1.986
		c-0.124-0.002-0.261,0.009-0.387,0.009c0.054-0.075,0.128-0.138,0.174-0.217c3.627-6.192-2.327-15.127,7.477-18.598
		c0.115-0.041,0.206-0.109,0.298-0.174c10.377,12.428,16.578,27.923,17.211,44.795C184.392,114.925,173.56,138.605,154.833,152.535z
		"/>
</g>
<g>
</g>
<g>
</g>
<g>
</g>
<g>
</g>
<g>
</g>
<g>
</g>
<g>
</g>
<g>
</g>
<g>
</g>
<g>
</g>
<g>
</g>
<g>
</g>
<g>
</g>
<g>
</g>
<g>
</g>
</svg>
